<svg xmlns="http://www.w3.org/2000/svg" width="171" height="106" viewBox="0 0 171 106">
  <g fill="none" fill-rule="evenodd">
    <polygon fill="#E6EEF4" points="78.657 105.22 170.327 105.412 124.439 22.543"/>
    <polygon fill="#FFF" points="118.51 33.211 124.638 39.6 127.557 36.556 128.757 37.808 130.827 35.65 132.866 37.775 124.418 22.542"/>
    <polygon fill="#F0F4F7" points="59.363 59.521 128.374 59.521 93.868 0"/>
    <polygon fill="#E6EEF4" points="83.063 18.638 94.27 29.799 99.608 24.482 101.804 26.669 105.59 22.899 109.32 26.613 93.868 0"/>
    <g transform="translate(0 22.367)">
      <path fill="#D3E0ED" d="M77.9547694,6.49661847 C77.9547694,5.0055293 76.7412704,3.79699427 75.2440567,3.79699427 C74.1224175,3.79699427 73.1600924,4.4755293 72.7479095,5.44235732 C72.4340268,5.16993057 72.0242167,5.00451656 71.5750865,5.00451656 C71.1974781,5.00451656 70.847326,5.12165669 70.5588658,5.32116624 C70.4798867,2.42743376 68.1016998,0.105223567 65.1770994,0.105223567 C62.202671,0.105223567 59.7916044,2.50676497 59.7916044,5.46868854 C59.7916044,5.93319809 59.8505845,6.38386688 59.9621044,6.81360573 L54.7640577,8.00694968 L83.5724563,8.00694968 L77.9547694,6.49661847 Z"/>
      <polygon fill="#D3E0ED" points="89.901 45.587 40.931 29.089 89.901 12.593"/>
      <polygon fill="#BDCDE5" points="89.905 45.587 138.875 29.08 89.905 12.582"/>
      <path stroke="#FFF" stroke-linecap="round" stroke-linejoin="round" stroke-width=".506" d="M118.954121,39.5741548 C112.127003,37.4241102 108.321091,30.1691866 110.479966,23.3699955 L110.479966,23.369658 C102.37664,28.3688745 91.738186,25.8930656 86.7184355,17.8225497 C85.5778142,22.6560146 80.7190727,25.6530465 75.8660935,24.5167535 C73.5902745,23.9840529 71.7198589,22.6371102 70.4928013,20.8584032 L70.4931403,20.8735943 C70.5412735,28.8681548 64.0727814,35.3888427 56.0453838,35.436779 C52.2804862,35.4597344 48.8416741,34.054728 46.2458709,31.7321803"/>
      <path stroke="#FFF" stroke-linecap="round" stroke-linejoin="round" stroke-width=".506" d="M117.420977,44.4021172 C112.825273,42.9545758 109.066816,39.8130599 106.838791,35.5561809 C106.025611,34.0029771 105.452081,32.3701045 105.121589,30.6997605 C103.890802,30.9060217 102.651881,31.0076331 101.417027,31.0076331 C96.3864295,31.0079707 91.1849931,29.5384866 87.194683,26.3713146 C86.5574265,26.9475631 86.1093132,27.2517223 85.3615538,27.7128561 C83.1013271,29.1070599 80.5519623,29.824079 77.9581929,29.824079 C76.874857,29.824079 75.7837248,29.6991745 74.7027615,29.4459898 C74.3817605,29.3710471 74.4444693,29.3963656 74.1319424,29.3001554 C71.0253172,35.935958 63.9022814,40.4534484 56.0758908,40.5000344"/>
      <path stroke="#FFF" stroke-linecap="round" stroke-linejoin="round" stroke-width=".506" d="M115.887867,49.2301134 C109.999685,47.3757885 105.185009,43.3508268 102.329897,37.8968904 C102.017031,37.2990369 101.730944,36.6903809 101.472651,36.0715975 L101.417061,36.0715975 C96.2766384,36.0715975 91.366374,34.8161389 87.2367487,32.4865019 C84.3897716,34.0599605 81.2011165,34.8880433 77.9582268,34.8880433 C77.5646871,34.8880433 77.1711473,34.8758904 76.7776076,34.8515847 C74.2831553,38.4538968 70.825361,41.3145465 66.8255598,43.1702217"/>
      <path stroke="#FFF" stroke-linecap="round" stroke-linejoin="round" stroke-width=".506" d="M106.22933,49.9837261 C102.97356,47.6260701 100.247933,44.5797516 98.2331174,40.9960064 C94.3377178,40.6533631 91.0314415,39.879293 87.6099166,38.3264268 C85.1012277,39.3550318 81.6088589,40.2074204 78.9066204,40.3573057 C77.1721303,42.412828 75.5328898,43.7871146 73.2879166,45.3143248"/>
      <path stroke="#FFF" stroke-linecap="round" stroke-linejoin="round" stroke-width=".506" d="M99.3698745,50.7993185 C97.8126637,49.2582675 96.345279,47.1308408 95.1148317,45.2940701 C92.2973446,44.8633185 90.4354033,44.5125732 87.8351935,43.5072611 C86.1074828,44.0706815 82.7384977,44.8322611 80.940282,45.0672166 C79.9237224,46.1295796 79.6427194,46.8300573 78.4943019,47.759414"/>
      <line x1="110.48" x2="90.794" y1="23.37" y2="51.46" stroke="#FFF" stroke-linecap="round" stroke-width=".506"/>
      <line x1="86.719" x2="88.181" y1="17.823" y2="51.46" stroke="#FFF" stroke-linecap="round" stroke-width=".506"/>
      <line x1="70.493" x2="83.063" y1="20.873" y2="49.983" stroke="#FFF" stroke-linecap="round" stroke-width=".506"/>
      <path fill="#E6EEF4" d="M0,83.044451 C0,83.044451 24.3984483,40.6728076 52.4367157,50.5247312 C80.4746441,60.3766548 95.3230586,68.2331452 95.3230586,68.2331452 L0,83.044451 Z"/>
      <polygon fill="#BDCDE5" points="40.931 69.886 89.9 83.007 89.9 45.587 40.931 29.089"/>
      <polygon fill="#D3E0ED" points="138.87 69.886 89.9 83.007 89.9 45.587 138.87 29.089"/>
      <path fill="#D3E0ED" d="M50.0724942,18.4151032 C50.1307964,18.1868994 50.1616423,17.9482306 50.1616423,17.7024726 C50.1616423,16.109772 48.8650966,14.8188675 47.266193,14.8188675 C45.8550767,14.8188675 44.6802199,15.8241796 44.4232835,17.1549185 C44.0727924,16.8392815 43.6080698,16.6471987 43.0982646,16.6471987 C43.0864008,16.6471987 43.0748759,16.648549 43.0630121,16.6488866 C42.864039,14.8816573 41.359707,13.5080459 39.5323402,13.5080459 C37.6565012,13.5080459 36.1213233,14.9559248 35.9894654,16.7906701 C35.5972815,16.4294599 35.0745956,16.2069949 34.498692,16.2069949 C33.2845151,16.2069949 32.3001573,17.1873261 32.3001573,18.3961987 L28.0691811,19.2148293 L53.7926483,19.2148293 L50.0724942,18.4151032 Z"/>
      <polygon fill="#ABBEDB" points="68.398 56.326 76.311 59.121 89.9 45.586 40.931 29.089 27.341 42.624 65.723 55.609 68.848 50.414 67.878 46.852 71.873 44.934 68.552 47.086 69.944 50.821"/>
      <polygon fill="#F0F4F7" points="152.46 42.624 138.87 29.089 89.901 45.587 103.49 59.121"/>
      <path fill="#E6EEF4" d="M138.789271 70.0225873C138.789271 65.4315045 142.526034 61.7100268 147.135975 61.7100268 147.135975 66.3011096 143.398872 70.0225873 138.789271 70.0225873M138.789271 70.0225873C130.702554 70.0225873 124.146609 63.4934599 124.146609 55.4398229 132.233665 55.4398229 138.789271 61.9689503 138.789271 70.0225873"/>
      <path fill="#FFF" d="M144.554849 41.5475439C144.554849 41.8554166 144.304353 42.1045503 143.995216 42.1045503 143.686079 42.1045503 143.435583 41.8554166 143.435583 41.5475439 143.435583 41.2400089 143.686079 40.9905376 143.995216 40.9905376 144.304353 40.9905376 144.554849 41.2400089 144.554849 41.5475439M147.791908 52.6247127C147.791908 52.9322478 147.541412 53.1817191 147.232275 53.1817191 146.923138 53.1817191 146.672981 52.9322478 146.672981 52.6247127 146.672981 52.3168401 146.923138 52.0673688 147.232275 52.0673688 147.541412 52.0673688 147.791908 52.3168401 147.791908 52.6247127M141.741972 52.6247127C141.741972 52.9322478 141.491476 53.1817191 141.182339 53.1817191 140.873201 53.1817191 140.622705 52.9322478 140.622705 52.6247127 140.622705 52.3168401 140.873201 52.0673688 141.182339 52.0673688 141.491476 52.0673688 141.741972 52.3168401 141.741972 52.6247127M139.252197 47.6111153C139.252197 47.9189879 139.001701 48.1681217 138.692564 48.1681217 138.383427 48.1681217 138.13327 47.9189879 138.13327 47.6111153 138.13327 47.3032427 138.383427 47.0541089 138.692564 47.0541089 139.001701 47.0541089 139.252197 47.3032427 139.252197 47.6111153M141.182406 57.6702452C141.182406 57.9781178 140.93191 58.2272516 140.622773 58.2272516 140.313636 58.2272516 140.063479 57.9781178 140.063479 57.6702452 140.063479 57.3623726 140.313636 57.1132389 140.622773 57.1132389 140.93191 57.1132389 141.182406 57.3623726 141.182406 57.6702452"/>
      <polyline stroke="#FFF" stroke-linecap="round" stroke-width=".506" points="126.674 57.613 138.789 70.023 145.859 63.196"/>
      <path fill="#F0F4F7" d="M0,83.044451 C0,83.044451 39.0190775,69.5534191 55.0596362,66.5435592 C71.0998559,63.5340369 87.2332913,58.0200115 104.590056,67.9836739 C121.94682,77.9469987 129.130192,64.9214892 148.235344,72.6240433 C167.340835,80.3265975 170.327127,83.044451 170.327127,83.044451 L0,83.044451 Z"/>
      <path fill="#2B6BCC" d="M55.3549096 68.246986C55.3549096 68.4093618 55.2227128 68.5410178 55.0593311 68.5410178 54.8962884 68.5410178 54.7640916 68.4093618 54.7640916 68.246986 54.7640916 68.0846102 54.8962884 67.9529541 55.0593311 67.9529541 55.2227128 67.9529541 55.3549096 68.0846102 55.3549096 68.246986M52.7398532 73.4652917C52.7398532 73.6273299 52.6076564 73.7593236 52.4446136 73.7593236 52.2812319 73.7593236 52.1490351 73.6273299 52.1490351 73.4652917 52.1490351 73.3029159 52.2812319 73.1709223 52.4446136 73.1709223 52.6076564 73.1709223 52.7398532 73.3029159 52.7398532 73.4652917M63.9682781 74.0534229C63.9682781 74.2157987 63.8360813 74.3474548 63.6726996 74.3474548 63.5096569 74.3474548 63.37746 74.2157987 63.37746 74.0534229 63.37746 73.8910471 63.5096569 73.7593911 63.6726996 73.7593911 63.8360813 73.7593911 63.9682781 73.8910471 63.9682781 74.0534229M50.9381122 70.0225873C50.9381122 70.1846255 50.8059154 70.3166191 50.6425337 70.3166191 50.479491 70.3166191 50.3472941 70.1846255 50.3472941 70.0225873 50.3472941 69.8602115 50.479491 69.7285554 50.6425337 69.7285554 50.8059154 69.7285554 50.9381122 69.8602115 50.9381122 70.0225873M48.5683317 72.6655318C48.5683317 72.8275701 48.4361349 72.9595637 48.2727532 72.9595637 48.1097104 72.9595637 47.9775136 72.8275701 47.9775136 72.6655318 47.9775136 72.5031561 48.1097104 72.3711624 48.2727532 72.3711624 48.4361349 72.3711624 48.5683317 72.5031561 48.5683317 72.6655318M48.2728888 77.2726159C48.2728888 77.4346541 48.1406919 77.5666478 47.9776492 77.5666478 47.8142675 77.5666478 47.6824096 77.4346541 47.6824096 77.2726159 47.6824096 77.1102401 47.8142675 76.9785841 47.9776492 76.9785841 48.1406919 76.9785841 48.2728888 77.1102401 48.2728888 77.2726159M58.9162242 71.5258631C58.9162242 71.6882389 58.7840273 71.8198949 58.6209846 71.8198949 58.4576029 71.8198949 58.3254061 71.6882389 58.3254061 71.5258631 58.3254061 71.3634873 58.4576029 71.2318312 58.6209846 71.2318312 58.7840273 71.2318312 58.9162242 71.3634873 58.9162242 71.5258631M74.4260634 70.3166529C74.4260634 70.4790287 74.2938666 70.6106847 74.1308239 70.6106847 73.9677811 70.6106847 73.8355843 70.4790287 73.8355843 70.3166529 73.8355843 70.1542771 73.9677811 70.022621 74.1308239 70.022621 74.2938666 70.022621 74.4260634 70.1542771 74.4260634 70.3166529M64.2635516 67.0598535C64.2635516 67.2222293 64.1313548 67.3542229 63.968312 67.3542229 63.8049303 67.3542229 63.6727335 67.2222293 63.6727335 67.0598535 63.6727335 66.8978153 63.8049303 66.7658217 63.968312 66.7658217 64.1313548 66.7658217 64.2635516 66.8978153 64.2635516 67.0598535M44.6099522 71.5258631C44.6099522 71.6882389 44.4777554 71.8198949 44.3147126 71.8198949 44.1513309 71.8198949 44.0194731 71.6882389 44.0194731 71.5258631 44.0194731 71.3634873 44.1513309 71.2318312 44.3147126 71.2318312 44.4777554 71.2318312 44.6099522 71.3634873 44.6099522 71.5258631M37.5466083 78.854379C37.5466083 79.0167548 37.4144115 79.1487484 37.2513688 79.1487484 37.0879871 79.1487484 36.9557903 79.0167548 36.9557903 78.854379 36.9557903 78.6923408 37.0879871 78.5603471 37.2513688 78.5603471 37.4144115 78.5603471 37.5466083 78.6923408 37.5466083 78.854379M35.0497155 74.7971446C35.0497155 74.9595204 34.9175187 75.091514 34.7544759 75.091514 34.5910942 75.091514 34.4588974 74.9595204 34.4588974 74.7971446 34.4588974 74.6351064 34.5910942 74.5031127 34.7544759 74.5031127 34.9175187 74.5031127 35.0497155 74.6351064 35.0497155 74.7971446M42.4934133 75.679679C42.4934133 75.8420548 42.3612165 75.9737108 42.1978348 75.9737108 42.034792 75.9737108 41.9025952 75.8420548 41.9025952 75.679679 41.9025952 75.5173032 42.034792 75.3856471 42.1978348 75.3856471 42.3612165 75.3856471 42.4934133 75.5173032 42.4934133 75.679679M25.3236566 77.5666815C25.3236566 77.7290573 25.1914597 77.8607134 25.028078 77.8607134 24.8650353 77.8607134 24.7328385 77.7290573 24.7328385 77.5666815 24.7328385 77.4043057 24.8650353 77.2726497 25.028078 77.2726497 25.1914597 77.2726497 25.3236566 77.4043057 25.3236566 77.5666815"/>
    </g>
  </g>
</svg>
